<?xml version="1.0" standalone="no"?>
<!DOCTYPE svg PUBLIC "-//W3C//DTD SVG 20010904//EN"
 "http://www.w3.org/TR/2001/REC-SVG-20010904/DTD/svg10.dtd">
<svg version="1.0" xmlns="http://www.w3.org/2000/svg"
 width="881.000000pt" height="881.000000pt" viewBox="0 0 881.000000 881.000000"
 preserveAspectRatio="xMidYMid meet">
<metadata>
Created by potrace 1.14, written by Peter Selinger 2001-2017
</metadata>
<g transform="translate(0.000000,881.000000) scale(0.100000,-0.100000)"
fill="#000000" stroke="none">
<path d="M0 4405 l0 -4405 4405 0 4405 0 0 4405 0 4405 -4405 0 -4405 0 0
-4405z m4559 4155 c69 -37 129 -99 169 -175 24 -45 27 -61 27 -155 0 -96 -2
-110 -29 -163 -39 -77 -105 -141 -185 -180 -59 -28 -75 -31 -156 -31 -78 -1
-98 3 -153 28 -72 33 -147 108 -190 190 -24 45 -27 62 -27 151 0 90 3 106 28
156 53 103 112 159 215 200 38 16 66 19 143 16 85 -3 102 -7 158 -37z m833
-82 c238 -109 300 -406 126 -603 -106 -121 -292 -157 -443 -86 -87 41 -139 95
-186 195 -25 52 -29 73 -29 146 0 73 4 93 29 145 53 112 134 186 241 220 70
23 192 15 262 -17z m-1812 0 c101 -30 180 -99 236 -208 25 -49 28 -66 29 -150
0 -86 -3 -101 -31 -161 -40 -83 -101 -146 -179 -185 -55 -26 -69 -29 -165 -29
-94 0 -111 3 -165 28 -71 33 -138 101 -180 181 -28 53 -30 66 -30 159 0 93 3
107 29 157 42 82 90 135 151 170 93 53 205 67 305 38z m2688 -322 c149 -69
238 -239 212 -404 -47 -289 -405 -419 -620 -226 -137 123 -173 296 -94 452 38
76 65 108 126 150 78 52 114 62 218 59 80 -2 105 -7 158 -31z m-3494 -31 c186
-94 265 -313 180 -495 -114 -242 -420 -302 -605 -120 -79 78 -113 153 -118
257 -4 104 14 160 79 246 81 107 171 148 316 144 77 -2 99 -7 148 -32z m4163
-423 c104 -34 204 -130 246 -240 11 -27 17 -72 17 -126 0 -75 -3 -90 -35 -154
-44 -87 -121 -161 -203 -194 -86 -35 -215 -32 -296 6 -80 38 -146 102 -187
183 -32 62 -34 74 -34 162 0 81 4 104 24 146 28 57 74 121 110 150 94 77 241
105 358 67z m-4915 -110 c79 -39 135 -98 178 -188 26 -54 30 -73 30 -149 0
-77 -4 -95 -32 -153 -36 -77 -113 -158 -178 -190 -95 -46 -245 -46 -337 0 -93
46 -167 135 -197 237 -50 168 32 359 187 438 78 39 94 42 192 40 79 -2 98 -6
157 -35z m5464 -503 c116 -21 219 -103 272 -217 35 -75 43 -198 16 -269 -29
-80 -91 -160 -157 -203 -75 -48 -137 -64 -235 -58 -96 6 -177 44 -243 114
-148 159 -145 376 9 537 20 20 42 37 49 37 7 0 13 4 13 8 0 20 119 58 191 61
14 1 52 -4 85 -10z m-6108 -177 c139 -53 233 -178 249 -328 15 -142 -76 -296
-219 -371 -48 -25 -63 -27 -158 -28 -99 0 -109 2 -172 33 -136 67 -228 227
-212 371 13 115 94 241 192 298 90 53 219 63 320 25z m6572 -568 c183 -54 306
-244 273 -421 -49 -265 -315 -396 -560 -276 -66 33 -123 95 -163 179 -26 53
-30 73 -30 147 0 93 15 149 58 212 95 143 263 206 422 159z m-6959 -268 c100
-50 175 -142 204 -251 29 -112 14 -197 -53 -301 -71 -110 -179 -166 -317 -166
-112 0 -179 27 -256 102 -86 85 -119 161 -119 278 0 81 3 95 32 152 48 93 99
145 181 185 70 35 74 36 172 32 85 -3 108 -7 156 -31z m7215 -550 c183 -48
311 -251 274 -432 -25 -121 -94 -213 -201 -268 -204 -104 -427 -24 -526 190
-24 51 -28 71 -27 149 0 82 3 96 33 154 89 172 267 255 447 207z m-7482 -261
c137 -36 236 -137 272 -278 58 -223 -109 -450 -342 -465 -161 -10 -298 70
-371 218 -22 43 -28 73 -31 139 -5 97 7 144 52 216 98 152 251 214 420 170z
m4335 -529 c8 -9 11 -104 9 -327 l-3 -314 -71 -3 c-67 -3 -72 -1 -78 20 -10
40 -7 598 4 619 9 15 22 19 69 19 37 0 63 -5 70 -14z m865 5 c3 -4 7 -49 8
-100 1 -50 4 -91 6 -91 2 0 19 12 39 27 30 23 46 28 92 27 165 -2 276 -168
226 -339 -33 -115 -113 -180 -221 -180 -55 0 -67 4 -101 32 l-39 31 -11 -29
c-11 -29 -13 -30 -75 -27 l-63 3 -3 315 c-1 173 0 320 3 327 5 15 130 18 139
4z m-4118 -74 c50 -26 91 -80 103 -136 6 -28 9 -56 7 -63 -3 -7 -7 -25 -10
-40 -7 -31 -57 -92 -90 -111 -11 -6 -61 -14 -111 -17 l-90 -5 -3 -102 -3 -103
-74 0 -75 0 0 294 c0 226 3 296 13 300 6 3 77 4 157 2 109 -2 153 -7 176 -19z
m6449 8 c101 -16 208 -103 262 -214 25 -50 28 -67 28 -156 -1 -89 -4 -106 -29
-158 -59 -120 -166 -199 -294 -217 -314 -44 -545 310 -374 574 46 71 84 106
147 137 91 44 146 52 260 34z m-5972 -79 c18 -8 44 -26 59 -40 l28 -26 14 35
c15 36 16 36 68 33 l53 -3 0 -250 0 -250 -63 -3 c-62 -3 -64 -2 -74 26 l-11
29 -44 -33 c-35 -27 -54 -34 -88 -34 -55 0 -130 32 -173 73 -145 138 -84 392
106 443 62 17 86 17 125 0z m570 3 c22 -6 55 -26 75 -44 l37 -34 -34 -35 c-39
-40 -51 -43 -86 -20 -30 20 -89 15 -93 -7 -2 -12 11 -21 51 -34 77 -24 128
-55 155 -95 20 -29 23 -44 20 -93 -7 -100 -68 -149 -193 -155 -61 -3 -77 0
-125 25 -30 15 -62 40 -70 55 -14 26 -13 29 20 63 18 19 39 35 45 35 6 0 26
-11 45 -25 60 -44 145 -27 113 23 -5 9 -33 24 -62 33 -84 29 -118 55 -137 104
-53 139 76 250 239 204z m510 -3 c18 -7 44 -25 58 -38 l27 -25 16 34 c16 33
18 34 69 31 l52 -3 0 -250 0 -250 -62 -3 c-59 -3 -64 -1 -75 23 -13 29 -21 31
-39 8 -19 -22 -72 -43 -108 -43 -51 0 -135 38 -173 77 -59 62 -73 98 -73 189
0 72 3 86 30 129 39 62 92 105 152 121 63 17 87 17 126 0z m691 -7 c246 -92
200 -477 -61 -507 -55 -6 -85 2 -122 34 l-31 26 0 -100 c0 -113 0 -112 -78
-112 -81 0 -77 -15 -80 302 -2 156 -1 302 3 326 l6 42 54 0 c53 0 54 -1 65
-36 l12 -36 32 31 c57 55 112 64 200 30z m533 10 c15 -5 42 -24 60 -41 l32
-31 15 37 c15 37 16 37 68 34 l53 -3 0 -250 0 -250 -62 -3 c-56 -3 -63 -1 -74
20 -6 13 -13 24 -14 26 -2 2 -23 -11 -47 -28 -39 -29 -48 -32 -99 -27 -128 11
-225 108 -236 237 -12 127 67 244 185 276 59 16 84 17 119 3z m862 1 c19 -5
49 -24 67 -41 l32 -31 13 36 c13 35 14 36 65 36 38 0 53 -4 58 -16 9 -24 7
-467 -3 -482 -5 -9 -26 -12 -66 -10 -57 3 -60 5 -82 47 -1 2 -22 -12 -47 -29
-42 -30 -50 -32 -100 -27 -140 14 -236 120 -236 260 0 75 19 125 70 179 33 36
60 55 100 68 64 22 82 24 129 10z m1299 -26 c48 -28 51 -40 20 -94 -29 -50
-42 -55 -83 -30 -18 11 -44 20 -57 20 -27 0 -78 -40 -79 -62 0 -7 0 -70 1
-139 1 -70 -2 -139 -6 -153 -6 -26 -8 -27 -78 -24 l-71 3 -3 244 c-2 189 1
246 10 253 7 4 32 8 56 8 40 0 44 -2 58 -37 l16 -37 31 36 c18 20 39 39 47 42
27 10 94 -5 138 -30z m405 20 c18 -9 44 -28 59 -41 l27 -26 8 34 c9 33 11 34
66 37 l57 3 0 -256 0 -255 -64 0 c-61 0 -64 1 -76 30 l-12 30 -42 -36 c-38
-33 -45 -35 -96 -32 -143 10 -242 119 -242 265 0 115 59 200 169 243 60 24
105 25 146 4z m-6358 -278 c76 -38 136 -100 177 -184 30 -60 33 -75 33 -157 0
-82 -3 -96 -33 -156 -41 -82 -104 -147 -179 -185 -53 -27 -67 -29 -163 -29
-99 0 -109 2 -172 33 -78 38 -138 100 -177 182 -21 44 -26 74 -29 147 -4 86
-2 98 26 155 39 84 108 159 178 193 102 50 238 50 339 1z m7336 -490 c236 -55
362 -322 254 -536 -87 -172 -274 -249 -464 -191 -62 19 -80 30 -134 84 -147
146 -166 320 -54 484 95 138 241 196 398 159z m-7124 -400 c76 -35 147 -107
189 -191 26 -54 29 -70 29 -155 0 -87 -3 -101 -32 -160 -41 -83 -98 -142 -176
-182 -57 -29 -70 -32 -162 -32 -89 0 -107 3 -160 27 -189 88 -279 322 -191
500 31 64 93 137 141 167 110 68 247 78 362 26z m6794 -396 c119 -23 213 -94
270 -207 32 -62 34 -74 34 -163 0 -87 -3 -101 -32 -160 -44 -89 -98 -144 -180
-183 -62 -29 -77 -32 -163 -32 -85 0 -102 3 -160 31 -81 38 -141 98 -183 183
-29 60 -32 74 -32 161 0 84 3 102 28 151 56 114 149 192 257 215 71 16 95 16
161 4z m-6349 -428 c79 -39 138 -100 179 -187 25 -52 29 -71 29 -151 0 -84 -3
-97 -34 -160 -42 -83 -97 -141 -169 -178 -191 -96 -421 -17 -518 179 -71 145
-36 319 88 436 82 78 143 99 273 96 74 -2 94 -6 152 -35z m5880 -283 c72 -16
122 -42 173 -94 61 -60 102 -137 116 -216 29 -161 -59 -322 -217 -400 -62 -31
-76 -34 -159 -34 -86 0 -97 3 -168 38 -207 102 -276 358 -147 547 43 62 68 86
125 120 77 47 175 60 277 39z m-5349 -343 c82 -34 122 -63 165 -121 67 -89 77
-118 77 -231 0 -94 -2 -104 -33 -165 -41 -81 -80 -123 -149 -165 -103 -62
-248 -67 -362 -12 -62 29 -139 111 -176 183 -26 54 -29 70 -29 150 1 59 7 105
18 134 20 55 84 141 131 176 99 76 246 97 358 51z m4795 -262 c73 -37 142
-107 178 -181 26 -52 29 -68 29 -158 0 -93 -2 -105 -32 -165 -40 -81 -95 -137
-176 -180 -57 -30 -69 -33 -157 -33 -76 0 -106 4 -150 22 -104 43 -183 127
-221 238 -67 197 62 431 268 483 21 5 75 8 121 6 66 -3 94 -9 140 -32z m-4117
-227 c81 -25 152 -79 202 -154 52 -78 66 -127 67 -226 0 -58 -5 -79 -32 -134
-63 -127 -156 -200 -284 -224 -70 -13 -166 1 -232 33 -64 31 -141 111 -177
183 -27 55 -30 69 -30 160 0 95 2 103 35 165 56 103 132 167 240 201 41 12
164 10 211 -4z m3308 -172 c108 -28 193 -105 249 -225 22 -45 26 -70 27 -140
0 -75 -4 -93 -31 -150 -39 -83 -75 -124 -146 -170 -185 -120 -428 -55 -539
145 -33 58 -34 64 -34 170 0 101 2 115 29 168 83 167 265 250 445 202z m-2451
-185 c73 -39 130 -99 169 -178 25 -51 28 -68 28 -157 0 -89 -3 -106 -28 -156
-119 -243 -430 -300 -613 -113 -131 136 -149 325 -45 480 47 70 95 109 170
141 49 21 68 23 156 20 91 -3 107 -7 163 -37z m1607 -55 c102 -17 206 -100
263 -210 21 -41 27 -67 30 -147 4 -92 3 -101 -26 -162 -76 -161 -234 -250
-406 -225 -120 17 -233 103 -291 224 -25 52 -29 72 -29 150 0 82 3 96 33 156
42 84 108 152 179 186 53 25 145 43 187 37 11 -2 38 -6 60 -9z m-770 -82 c72
-37 101 -62 149 -132 184 -269 -46 -628 -373 -581 -123 17 -225 92 -288 211
-25 49 -28 63 -28 159 0 97 2 110 30 164 50 100 123 162 245 210 8 3 58 4 110
3 83 -3 102 -7 155 -34z"/>
<path d="M4335 8553 c-56 -7 -149 -59 -188 -104 -56 -65 -55 -62 -77 -129 -33
-99 -14 -198 56 -290 69 -91 142 -125 264 -125 72 0 92 4 130 25 66 37 78 49
72 74 -7 29 -20 36 -74 36 -42 0 -47 3 -57 30 -9 28 -13 30 -60 30 -45 0 -50
-2 -63 -30 -12 -27 -17 -30 -59 -30 -28 0 -49 5 -52 13 -5 14 81 250 94 255 5
2 9 16 9 31 0 38 17 51 67 51 43 0 52 7 34 26 -6 5 -12 21 -15 36 -4 27 -3 27
32 22 20 -3 40 -8 44 -10 3 -2 4 5 1 16 -3 10 -8 19 -12 18 -19 -2 -30 3 -26
15 3 6 1 17 -3 23 -8 13 -74 22 -117 17z m105 -488 c0 -8 -4 -15 -10 -15 -5 0
-10 7 -10 15 0 8 5 15 10 15 6 0 10 -7 10 -15z m20 -60 c-27 -14 -36 -13 -25
4 3 6 16 11 28 11 21 -1 21 -1 -3 -15z m80 -35 c0 -5 -8 -10 -17 -10 -15 0
-16 2 -3 10 19 12 20 12 20 0z"/>
<path d="M4495 8510 c3 -5 16 -10 28 -10 18 0 19 2 7 10 -20 13 -43 13 -35 0z"/>
<path d="M4482 8350 c0 -14 2 -19 5 -12 2 6 2 18 0 25 -3 6 -5 1 -5 -13z"/>
<path d="M4504 8275 c7 -19 15 -38 19 -41 11 -11 8 35 -3 57 -18 32 -28 21
-16 -16z"/>
<path d="M4392 8221 c-10 -28 -9 -31 9 -31 16 0 18 5 13 28 -9 37 -10 37 -22
3z"/>
<path d="M4530 8211 c0 -17 32 -92 37 -87 7 6 -16 84 -27 91 -6 3 -10 2 -10
-4z"/>
<path d="M4590 8050 c0 -11 5 -20 11 -20 6 0 8 -9 4 -20 -4 -12 -2 -20 6 -20
8 0 9 10 5 31 -3 17 -6 35 -6 40 0 5 -4 9 -10 9 -5 0 -10 -9 -10 -20z"/>
<path d="M4641 8044 c0 -11 3 -14 6 -6 3 7 2 16 -1 19 -3 4 -6 -2 -5 -13z"/>
<path d="M5155 8446 c-142 -44 -235 -159 -243 -298 -12 -205 181 -377 378
-337 60 12 95 29 154 73 34 26 36 31 20 37 -11 4 -23 3 -28 -2 -10 -9 -46 -13
-46 -4 0 17 26 55 44 63 17 9 18 11 4 11 -22 1 -24 21 -3 21 13 0 13 3 3 20
-11 17 -10 22 2 30 13 8 13 10 -2 10 -12 0 -15 6 -10 22 3 14 2 19 -6 14 -7
-4 -12 -27 -12 -51 0 -96 -13 -103 -187 -114 -81 -5 -104 -3 -108 7 -7 18 -7
316 0 334 7 18 225 9 248 -11 15 -12 17 -11 17 3 0 10 -4 15 -9 11 -5 -3 -12
-1 -16 5 -3 5 -16 10 -28 10 -45 0 -50 15 -18 48 17 17 31 34 31 39 0 14 -56
43 -87 44 -22 1 -23 3 -6 6 12 2 42 -3 68 -11 53 -18 55 -19 55 -8 0 14 -93
42 -135 41 -22 0 -58 -6 -80 -13z m195 -516 c0 -5 -9 -10 -21 -10 -11 0 -17 5
-14 10 3 6 13 10 21 10 8 0 14 -4 14 -10z m96 -35 c-11 -8 -27 -15 -36 -15 -9
0 -21 -5 -28 -12 -8 -8 -12 -8 -12 -1 0 20 36 39 80 42 11 0 10 -4 -4 -14z"/>
<path d="M5390 8400 c0 -5 7 -10 16 -10 8 0 12 5 9 10 -3 6 -10 10 -16 10 -5
0 -9 -4 -9 -10z"/>
<path d="M5389 8210 c-3 -25 -9 -54 -14 -65 -8 -19 -8 -19 9 -3 13 13 16 30
14 65 l-3 48 -6 -45z"/>
<path d="M5222 8198 c-19 -19 -14 -28 16 -28 35 0 45 9 31 27 -14 16 -31 17
-47 1z"/>
<path d="M5210 8069 c0 -7 9 -9 23 -6 20 5 20 5 5 -7 -24 -18 -22 -26 6 -26
34 0 56 10 56 25 0 7 -7 16 -16 19 -26 10 -74 7 -74 -5z"/>
<path d="M5493 7963 c-18 -38 -8 -41 12 -4 8 17 12 31 8 31 -5 0 -14 -12 -20
-27z"/>
<path d="M3363 8421 c-64 -24 -69 -26 -120 -74 -92 -86 -126 -225 -83 -339 27
-72 116 -168 178 -192 61 -23 152 -31 207 -17 55 14 145 70 145 90 0 12 -3 12
-12 3 -14 -14 -38 -16 -38 -3 0 14 48 19 61 7 9 -8 10 -7 5 7 -3 10 -6 23 -6
28 0 5 -5 9 -11 9 -5 0 -7 -4 -4 -10 12 -20 -34 -9 -48 11 -13 18 -16 18 -24
6 -6 -12 -36 -16 -145 -19 -150 -3 -148 -4 -148 55 0 31 21 61 108 155 17 19
32 39 32 43 0 4 -28 9 -62 11 l-63 3 0 40 0 40 125 5 c104 5 114 7 55 10 -60
3 -63 4 -24 7 41 4 46 7 42 24 -3 10 0 19 6 19 6 0 11 6 11 13 0 6 15 22 33
35 l32 24 -42 -7 c-31 -5 -43 -3 -43 5 0 7 7 10 15 6 8 -3 15 -2 15 3 0 9 -73
21 -119 21 -14 -1 -49 -9 -78 -19z m164 -63 c-3 -8 -6 -5 -6 6 -1 11 2 17 5
13 3 -3 4 -12 1 -19z m103 -498 c0 -5 -4 -10 -10 -10 -5 0 -10 5 -10 10 0 6 5
10 10 10 6 0 10 -4 10 -10z m-95 -50 c-3 -5 -12 -10 -18 -10 -7 0 -6 4 3 10
19 12 23 12 15 0z"/>
<path d="M3568 8303 c7 -3 16 -2 19 1 4 3 -2 6 -13 5 -11 0 -14 -3 -6 -6z"/>
<path d="M3610 8219 c0 -5 5 -7 10 -4 6 3 10 8 10 11 0 2 -4 4 -10 4 -5 0 -10
-5 -10 -11z"/>
<path d="M3588 8165 c-24 -33 -23 -43 2 -15 11 13 20 27 20 32 0 12 -3 10 -22
-17z"/>
<path d="M3515 8075 c-24 -27 -43 -51 -40 -53 8 -8 135 -9 135 -1 0 10 -65 20
-85 13 -15 -6 -16 -4 -5 17 7 13 22 31 34 40 12 10 18 21 14 25 -4 4 -28 -15
-53 -41z"/>
<path d="M3558 8058 c9 -9 15 -9 24 0 9 9 7 12 -12 12 -19 0 -21 -3 -12 -12z"/>
<path d="M6050 8133 c-34 -5 -111 -34 -128 -47 -97 -79 -142 -165 -142 -269 0
-36 7 -84 15 -108 20 -55 86 -143 122 -162 15 -8 44 -23 63 -33 44 -23 147
-30 205 -14 25 7 45 16 45 19 0 4 15 13 34 19 40 15 68 42 43 42 -9 0 -19 -4
-22 -10 -14 -23 -24 -7 -20 31 6 41 5 41 -22 34 -108 -28 -181 -17 -233 35
-55 55 -67 137 -33 223 18 44 82 87 131 87 31 0 31 0 26 45 -4 44 -4 45 26 45
16 0 30 5 30 10 0 6 -13 10 -29 10 -17 0 -33 5 -36 10 -8 13 49 13 93 1 17 -5
32 -6 32 -2 0 19 -143 43 -200 34z m61 -61 c-7 -2 -18 1 -23 6 -8 8 -4 9 13 5
13 -4 18 -8 10 -11z m132 -469 c-7 -2 -19 -2 -25 0 -7 3 -2 5 12 5 14 0 19 -2
13 -5z"/>
<path d="M6256 7987 c3 -10 9 -15 12 -12 3 3 0 11 -7 18 -10 9 -11 8 -5 -6z"/>
<path d="M6196 7981 c17 -4 36 -11 42 -15 7 -4 12 -3 12 2 0 13 -26 22 -58 21
-26 -1 -26 -1 4 -8z"/>
<path d="M6273 7910 c0 -25 2 -35 4 -22 2 12 2 32 0 45 -2 12 -4 2 -4 -23z"/>
<path d="M6120 7880 c0 -5 -7 -10 -15 -10 -21 0 -38 -70 -25 -106 10 -28 48
-54 80 -54 21 0 62 29 55 40 -3 5 3 11 12 14 18 5 -39 1 -67 -6 -9 -2 -15 4
-15 17 0 11 -4 23 -10 27 -6 5 -5 8 3 8 6 0 12 5 12 11 0 5 -5 7 -12 3 -7 -4
-8 -3 -4 4 4 7 15 13 24 13 9 1 4 4 -13 8 l-30 7 24 13 c17 9 26 10 34 2 6 -6
18 -11 27 -11 12 1 11 4 -4 15 -22 17 -76 20 -76 5z m-3 -46 c-3 -3 -12 -4
-19 -1 -8 3 -5 6 6 6 11 1 17 -2 13 -5z m68 -94 c-3 -5 -11 -10 -16 -10 -6 0
-7 5 -4 10 3 6 11 10 16 10 6 0 7 -4 4 -10z"/>
<path d="M6198 7833 c7 -3 16 -2 19 1 4 3 -2 6 -13 5 -11 0 -14 -3 -6 -6z"/>
<path d="M6267 7703 c3 -27 9 -52 13 -57 11 -11 32 31 27 52 -3 12 -5 11 -6
-5 -2 -40 -21 -24 -21 17 0 22 -4 40 -9 40 -5 0 -6 -21 -4 -47z"/>
<path d="M6370 7655 c-7 -9 -10 -18 -7 -21 3 -3 10 4 17 15 13 25 8 27 -10 6z"/>
<path d="M6287 7605 c-5 -10 0 -15 14 -15 12 0 19 5 17 12 -6 18 -25 20 -31 3z"/>
<path d="M2523 8096 c-147 -36 -253 -185 -241 -340 9 -105 79 -211 177 -265
64 -35 186 -41 264 -11 33 12 57 28 57 36 0 13 12 19 33 15 8 -1 0 38 -9 48
-2 2 -11 -2 -20 -10 -14 -11 -18 -10 -30 6 -8 11 -13 24 -10 30 5 14 -17 32
-36 29 -18 -2 -32 35 -22 60 3 8 2 21 -3 28 -5 8 -10 -14 -13 -57 l-5 -70 -45
0 -45 0 -3 59 c-2 47 -10 70 -38 113 -18 29 -34 57 -34 62 0 4 -9 18 -20 31
-11 13 -20 29 -20 36 0 7 -5 14 -12 16 -7 3 -9 12 -5 22 5 13 16 17 45 15 21
-2 43 1 50 5 8 4 14 6 15 5 54 -103 77 -131 77 -96 0 9 7 23 16 31 14 15 14
16 -4 16 -11 0 -22 -6 -25 -12 -2 -7 -8 -10 -12 -5 -5 4 0 13 9 20 15 11 16
18 8 34 -15 27 6 57 32 47 14 -5 15 -9 4 -15 -7 -5 4 -6 27 -2 51 7 57 13 16
13 -22 0 -30 4 -25 12 4 7 3 8 -4 4 -7 -4 -12 -1 -12 9 0 9 -4 13 -10 10 -5
-3 -10 -1 -10 4 0 6 5 11 11 11 8 0 8 5 -1 15 -7 8 -9 15 -4 15 5 0 2 5 -6 11
-12 9 -11 10 5 4 11 -3 34 -9 50 -12 39 -7 23 10 -24 26 -42 14 -81 13 -148
-3z m177 -497 c0 -5 -4 -9 -10 -9 -5 0 -10 7 -10 16 0 8 5 12 10 9 6 -3 10
-10 10 -16z m30 1 c0 -5 -5 -10 -11 -10 -5 0 -7 5 -4 10 3 6 8 10 11 10 2 0 4
-4 4 -10z"/>
<path d="M2765 8040 c3 -5 14 -10 23 -10 15 0 15 2 2 10 -20 13 -33 13 -25 0z"/>
<path d="M2750 8000 c0 -5 5 -10 11 -10 5 0 7 5 4 10 -3 6 -8 10 -11 10 -2 0
-4 -4 -4 -10z"/>
<path d="M2658 7952 c-12 -5 -15 -11 -8 -22 8 -12 10 -12 16 3 5 13 16 17 45
15 21 -1 42 1 45 5 9 9 -75 8 -98 -1z"/>
<path d="M2756 7871 c-4 -7 -5 -15 -2 -18 9 -9 19 4 14 18 -4 11 -6 11 -12 0z"/>
<path d="M2706 7780 c-8 -16 -11 -30 -6 -30 4 0 13 14 19 30 5 17 8 30 6 30
-2 0 -10 -13 -19 -30z"/>
<path d="M2721 7734 c0 -11 3 -14 6 -6 3 7 2 16 -1 19 -3 4 -6 -2 -5 -13z"/>
<path d="M2698 7683 c-7 -27 2 -36 22 -22 9 5 10 9 3 9 -6 0 -13 8 -15 18 -3
14 -5 13 -10 -5z"/>
<path d="M2810 7621 c0 -15 -8 -21 -32 -24 -32 -4 -32 -4 5 -5 33 -2 37 0 37
23 0 14 -2 25 -5 25 -3 0 -5 -9 -5 -19z"/>
<path d="M2854 7618 c-3 -13 -13 -31 -22 -40 -8 -10 -10 -18 -5 -18 16 0 33
25 39 54 5 32 -2 34 -12 4z"/>
<path d="M6755 7660 c-3 -5 -15 -10 -27 -10 -31 0 -99 -40 -141 -84 -55 -59
-89 -134 -95 -215 -4 -61 -1 -75 28 -135 53 -112 128 -172 243 -196 54 -11
151 0 171 20 6 6 18 10 27 10 22 0 129 101 129 120 0 10 -7 6 -20 -10 -11 -14
-20 -21 -20 -17 0 5 -13 0 -29 -9 -27 -16 -32 -16 -63 -1 -28 14 -30 17 -10
17 13 0 22 6 22 15 0 8 -2 15 -5 15 -2 0 -30 -7 -62 -15 -79 -21 -199 -20
-207 1 -12 30 -7 322 6 330 6 4 51 7 99 6 l87 -1 -2 57 c-1 31 -1 62 2 69 4
13 32 6 32 -9 0 -5 -4 -7 -9 -3 -5 3 -13 0 -17 -6 -5 -9 3 -10 31 -6 44 7 72
27 38 27 -12 0 -25 5 -28 10 -3 6 -15 10 -26 10 -10 0 -19 5 -19 10 0 6 -28
10 -64 10 -36 0 -68 -4 -71 -10z m188 -547 c-7 -2 -19 -2 -25 0 -7 3 -2 5 12
5 14 0 19 -2 13 -5z m57 -21 c-14 -11 -33 -17 -47 -14 -18 3 -21 7 -11 13 7 5
20 6 30 3 9 -2 19 0 23 6 3 5 11 10 17 10 5 0 0 -8 -12 -18z"/>
<path d="M6940 7480 c19 -10 37 -16 39 -14 8 8 -34 33 -54 33 -15 0 -11 -5 15
-19z"/>
<path d="M7016 7413 c-6 -14 -5 -15 5 -6 7 7 10 15 7 18 -3 3 -9 -2 -12 -12z"/>
<path d="M6800 7325 c0 -79 1 -85 20 -85 35 0 77 28 84 55 4 14 2 43 -4 64
-10 39 -28 51 -77 51 -22 0 -23 -3 -23 -85z m60 61 c0 -3 -4 -8 -10 -11 -5 -3
-10 -1 -10 4 0 6 5 11 10 11 6 0 10 -2 10 -4z m27 -67 c-6 -42 -20 -60 -47
-58 -10 1 -9 3 3 6 15 4 16 7 5 21 -10 12 -10 14 0 8 15 -9 15 -1 2 25 -8 14
-7 19 2 20 7 1 0 5 -17 9 -28 7 -27 8 14 9 l44 1 -6 -41z"/>
<path d="M7021 7324 c1 -60 -23 -120 -51 -128 -10 -2 -8 -4 6 -5 14 -1 26 11
42 44 23 47 30 129 12 140 -5 3 -9 -17 -9 -51z"/>
<path d="M7051 7224 c0 -11 3 -14 6 -6 3 7 2 16 -1 19 -3 4 -6 -2 -5 -13z"/>
<path d="M1758 7566 c-98 -35 -160 -89 -205 -180 -19 -41 -25 -68 -26 -134 0
-52 3 -86 11 -94 7 -7 12 -18 12 -26 0 -17 57 -100 85 -125 28 -25 124 -69
135 -62 5 3 11 1 15 -5 7 -11 118 -14 128 -3 4 3 19 8 34 9 15 2 29 8 31 14 2
5 12 10 22 10 25 0 100 74 100 97 0 10 -5 25 -10 33 -8 11 -9 6 -8 -20 3 -32
1 -35 -27 -38 -30 -4 -30 -4 -11 17 11 12 14 21 8 21 -6 0 -14 -4 -17 -10 -7
-11 -95 -13 -111 -2 -6 4 -16 17 -23 29 -7 15 -17 20 -29 17 -14 -5 -15 -4 -2
5 12 8 12 13 3 22 -7 7 -14 11 -16 8 -1 -2 -15 -23 -30 -46 -26 -41 -28 -42
-74 -39 -27 2 -51 4 -55 5 -17 3 -6 29 37 86 59 78 64 99 32 133 -13 15 -37
47 -52 71 -31 51 -25 61 41 61 41 0 54 -8 93 -60 l19 -25 21 25 c21 26 27 50
12 50 -5 0 -5 16 0 38 11 48 11 54 -1 47 -5 -3 -10 -2 -10 4 0 5 -10 12 -22
15 -13 2 -1 4 25 3 37 -2 44 0 32 9 -8 6 -15 13 -15 15 0 9 40 7 45 -2 8 -12
25 -12 25 1 0 13 -96 40 -144 40 -23 -1 -57 -7 -78 -14z m89 -12 c-3 -3 -12
-4 -19 -1 -8 3 -5 6 6 6 11 1 17 -2 13 -5z m-4 -131 c-7 -2 -19 -2 -25 0 -7 3
-2 5 12 5 14 0 19 -2 13 -5z m41 -9 c11 -28 6 -39 -9 -20 -8 11 -15 23 -15 28
0 14 18 9 24 -8z m-19 -34 c3 -5 1 -10 -4 -10 -6 0 -11 5 -11 10 0 6 2 10 4
10 3 0 8 -4 11 -10z m70 -350 c3 -6 -1 -7 -9 -4 -18 7 -21 14 -7 14 6 0 13 -4
16 -10z m103 -19 c-12 -10 -31 -16 -45 -13 l-24 5 22 11 c13 6 33 12 46 12
l23 2 -22 -17z"/>
<path d="M2050 7480 c0 -5 5 -10 10 -10 6 0 10 5 10 10 0 6 -4 10 -10 10 -5 0
-10 -4 -10 -10z"/>
<path d="M1968 7423 c7 -3 16 -2 19 1 4 3 -2 6 -13 5 -11 0 -14 -3 -6 -6z"/>
<path d="M2041 7384 c0 -11 3 -14 6 -6 3 7 2 16 -1 19 -3 4 -6 -2 -5 -13z"/>
<path d="M1974 7302 c-27 -36 -35 -59 -28 -77 9 -23 26 -18 19 5 -4 13 1 34
15 57 25 43 21 53 -6 15z"/>
<path d="M1980 7193 c1 -5 7 -19 15 -33 10 -18 14 -20 15 -8 0 9 -5 20 -10 23
-6 4 -8 11 -5 16 4 5 1 9 -4 9 -6 0 -11 -3 -11 -7z"/>
<path d="M2121 7094 c0 -11 3 -14 6 -6 3 7 2 16 -1 19 -3 4 -6 -2 -5 -13z"/>
<path d="M7325 7033 c-37 -8 -105 -45 -135 -73 -28 -27 -68 -85 -85 -126 -25
-60 -23 -177 4 -239 12 -27 25 -52 29 -55 4 -3 12 -14 18 -25 19 -35 104 -92
165 -110 92 -28 161 -16 282 51 15 8 27 21 27 28 0 8 7 16 15 20 8 3 15 12 15
21 0 18 -12 19 -28 3 -16 -16 -42 -19 -42 -5 0 9 -2 9 -8 0 -8 -13 -52 -14
-52 -1 0 4 -54 8 -120 8 l-120 0 0 175 0 175 63 2 c34 1 73 3 87 4 14 1 41 2
60 3 39 3 34 6 -24 16 -44 7 -42 14 6 22 51 8 47 13 -13 14 -34 1 -43 4 -24 6
17 3 36 9 43 15 16 14 11 61 -8 70 -17 7 -124 8 -155 1z m245 -570 c-8 -3 -22
-11 -30 -17 -13 -10 -13 -9 -1 7 7 9 21 17 30 16 13 0 14 -1 1 -6z"/>
<path d="M7530 7000 c0 -5 4 -10 9 -10 5 0 18 -3 28 -6 16 -5 16 -4 -1 10 -23
18 -36 20 -36 6z"/>
<path d="M7549 6835 c-6 -40 -4 -53 7 -43 3 3 4 23 2 44 l-3 39 -6 -40z"/>
<path d="M7397 6793 c-34 -33 81 -44 117 -11 19 17 18 18 -27 18 -25 0 -49 -4
-52 -10 -3 -5 -11 -10 -16 -10 -6 0 -7 5 -4 10 7 11 -8 14 -18 3z"/>
<path d="M7530 6720 c0 -5 7 -10 16 -10 8 0 12 5 9 10 -3 6 -10 10 -16 10 -5
0 -9 -4 -9 -10z"/>
<path d="M7390 6645 c0 -24 1 -25 73 -24 62 2 66 3 32 9 l-40 7 40 3 c26 2 32
4 18 7 -13 2 -23 9 -23 14 0 5 -7 9 -16 9 -8 0 -12 -4 -9 -10 3 -5 1 -10 -4
-10 -6 0 -11 6 -11 13 0 8 -4 7 -11 -3 -8 -11 -12 -12 -16 -2 -9 22 -33 13
-33 -13z"/>
<path d="M7546 6595 c8 -50 14 -58 14 -19 0 16 -5 36 -11 44 -7 11 -8 4 -3
-25z"/>
<path d="M7577 6617 c-11 -29 -9 -53 4 -40 6 6 9 21 7 34 -3 21 -4 22 -11 6z"/>
<path d="M7697 6603 c-4 -3 -7 -11 -7 -17 0 -6 5 -5 12 2 6 6 9 14 7 17 -3 3
-9 2 -12 -2z"/>
<path d="M1160 6871 c-95 -24 -187 -112 -225 -213 -35 -95 -8 -233 61 -307 13
-14 24 -28 24 -31 0 -3 24 -20 53 -37 109 -66 238 -65 342 0 45 29 48 32 25
35 -38 5 -49 22 -15 22 23 0 27 3 15 10 -13 8 -12 10 3 10 9 0 17 3 17 8 0 4
-32 7 -72 7 l-72 0 -16 67 c-8 37 -18 70 -22 73 -6 7 -38 -91 -38 -118 0 -23
-17 -30 -73 -30 -48 0 -52 2 -59 29 -54 189 -71 255 -75 285 l-5 35 51 3 c59
2 62 -1 81 -106 l13 -73 19 55 c10 30 19 70 20 90 3 31 7 36 36 41 48 9 99 84
57 84 -8 0 -15 7 -15 16 0 10 7 14 23 12 12 -2 21 -8 20 -14 -1 -5 7 -10 18
-10 10 0 19 5 19 10 0 6 5 5 12 -2 7 -7 19 -12 28 -12 11 1 8 6 -9 21 -13 11
-27 16 -30 12 -10 -15 -30 -9 -45 13 -13 18 -26 21 -78 21 -35 1 -74 -2 -88
-6z m127 -87 c-3 -3 -12 -4 -19 -1 -8 3 -5 6 6 6 11 1 17 -2 13 -5z m-11 -392
c-12 -11 -17 7 -9 34 l8 29 3 -28 c2 -16 1 -31 -2 -35z m94 -52 c0 -5 -2 -10
-4 -10 -3 0 -8 5 -11 10 -3 6 -1 10 4 10 6 0 11 -4 11 -10z m47 -36 c-3 -3
-12 -4 -19 -1 -8 3 -5 6 6 6 11 1 17 -2 13 -5z"/>
<path d="M1470 6770 c0 -5 5 -10 11 -10 5 0 7 5 4 10 -3 6 -8 10 -11 10 -2 0
-4 -4 -4 -10z"/>
<path d="M1480 6730 c0 -5 5 -10 10 -10 6 0 10 5 10 10 0 6 -4 10 -10 10 -5 0
-10 -4 -10 -10z"/>
<path d="M1335 6700 c3 -5 8 -10 11 -10 2 0 4 5 4 10 0 6 -5 10 -11 10 -5 0
-7 -4 -4 -10z"/>
<path d="M1389 6688 c-1 -13 -3 -30 -4 -38 -1 -8 -3 -22 -4 -30 -1 -13 -2 -13
-11 0 -15 25 -17 7 -4 -40 7 -28 12 -36 13 -22 1 13 5 31 10 40 13 27 22 112
11 112 -6 0 -11 -10 -11 -22z"/>
<path d="M1510 6643 c-6 -27 -16 -58 -21 -71 -5 -13 -9 -33 -8 -45 0 -12 7 3
16 33 8 30 21 72 28 93 7 20 10 37 5 37 -4 0 -13 -21 -20 -47z"/>
<path d="M1346 6655 c4 -8 8 -15 10 -15 2 0 4 7 4 15 0 8 -4 15 -10 15 -5 0
-7 -7 -4 -15z"/>
<path d="M1466 6485 c-3 -8 -1 -15 4 -15 6 0 10 7 10 15 0 8 -2 15 -4 15 -2 0
-6 -7 -10 -15z"/>
<path d="M1448 6415 c-4 -20 -3 -23 8 -14 16 13 19 39 5 39 -5 0 -11 -11 -13
-25z"/>
<path d="M1486 6375 c-26 -24 -34 -45 -16 -45 5 0 17 12 27 28 10 15 22 30 28
34 7 5 6 8 -1 8 -6 0 -23 -11 -38 -25z"/>
<path d="M7795 6299 c-4 -5 -17 -9 -31 -9 -62 0 -172 -88 -216 -173 -15 -29
-23 -66 -26 -124 -4 -75 -2 -86 27 -145 38 -80 79 -122 154 -160 50 -25 73
-30 139 -31 43 -1 82 3 86 8 4 6 12 10 17 10 17 1 103 46 116 61 9 11 8 14 -4
14 -8 0 -20 7 -27 15 -11 13 -10 14 2 10 11 -5 14 1 10 25 -4 30 -32 43 -32
15 0 -10 -10 -15 -30 -15 -16 0 -33 -1 -37 -2 -4 -2 -9 5 -11 15 -3 12 3 17
22 17 14 0 28 5 32 12 4 6 3 8 -4 4 -6 -3 -13 3 -17 14 -4 11 -11 18 -16 15
-5 -4 -9 -1 -9 6 0 9 -3 9 -14 0 -12 -10 -13 -8 -9 9 3 13 11 19 19 16 8 -3
14 -1 14 4 0 6 6 10 14 10 16 0 27 35 18 58 -5 13 -8 9 -12 -13 -5 -29 -6 -30
-72 -33 l-67 -3 -3 -67 -3 -67 -52 -3 -52 -3 -3 144 c-2 79 -1 157 2 173 l5
29 115 6 c63 3 103 6 88 7 -19 1 -25 7 -23 20 1 9 -2 23 -8 30 -6 8 -6 12 2
12 7 0 9 4 6 10 -3 5 6 12 20 16 14 3 25 10 25 16 0 5 -9 7 -20 3 -11 -3 -28
-1 -37 5 -14 9 -6 10 36 6 38 -4 51 -2 44 5 -22 22 -168 45 -178 28z m82 -65
c-3 -3 -12 -4 -19 -1 -8 3 -5 6 6 6 11 1 17 -2 13 -5z m142 -493 c9 -6 10 -11
2 -15 -6 -4 -11 -3 -11 3 0 5 -15 12 -32 14 l-33 4 30 1 c17 1 36 -2 44 -7z"/>
<path d="M8001 6241 c-10 -7 -7 -9 12 -8 14 1 23 5 20 10 -6 9 -15 9 -32 -2z"/>
<path d="M8050 6200 c0 -5 5 -10 10 -10 6 0 10 5 10 10 0 6 -4 10 -10 10 -5 0
-10 -4 -10 -10z"/>
<path d="M8001 6138 c-1 -9 -6 -18 -12 -20 -7 -2 -10 -11 -7 -18 3 -11 8 -9
17 8 7 13 10 28 7 35 -2 7 -5 5 -5 -5z"/>
<path d="M7830 6035 c0 -19 41 -29 87 -22 20 4 45 2 57 -4 20 -10 20 -10 2 5
-11 9 -25 16 -30 16 -6 0 -4 5 4 10 11 7 -5 10 -52 10 -54 0 -68 -3 -68 -15z"/>
<path d="M8136 5873 c-6 -14 -5 -15 5 -6 7 7 10 15 7 18 -3 3 -9 -2 -12 -12z"/>
<path d="M8091 5794 c0 -11 3 -14 6 -6 3 7 2 16 -1 19 -3 4 -6 -2 -5 -13z"/>
<path d="M770 6051 c-58 -8 -143 -52 -180 -94 -16 -18 -42 -57 -57 -87 -24
-48 -28 -66 -28 -140 0 -72 4 -93 27 -135 32 -62 94 -126 151 -156 73 -38 244
-36 294 4 8 7 25 21 38 33 13 12 30 24 39 27 9 4 16 11 16 17 0 6 -4 9 -9 6
-5 -4 -12 0 -14 6 -4 10 -6 10 -6 1 -1 -7 -6 -13 -12 -13 -5 0 -7 4 -4 10 3 5
0 7 -9 4 -22 -8 -56 14 -56 36 0 33 -18 22 -23 -12 l-4 -33 -1 32 c-1 18 7 55
18 83 11 28 20 61 20 73 -1 20 -13 -9 -56 -128 l-14 -40 -55 1 c-30 0 -59 4
-64 10 -5 5 -24 52 -41 104 -17 52 -38 111 -47 130 -10 19 -18 44 -20 55 -2
11 -8 22 -14 24 -23 7 29 27 71 27 l45 -1 18 -55 c10 -30 23 -59 28 -64 5 -6
9 -20 9 -32 0 -45 18 -32 33 23 11 39 13 60 6 69 -17 20 -19 74 -3 74 8 0 14
5 14 12 0 6 3 8 7 4 4 -4 7 -23 6 -44 0 -20 1 -27 4 -15 4 20 28 36 49 32 25
-4 58 2 47 9 -6 4 -28 7 -47 6 -20 -1 -39 2 -42 7 -3 5 0 9 5 9 6 0 11 14 11
30 0 28 3 30 38 31 20 1 40 1 45 0 4 0 7 2 7 7 0 4 -35 6 -77 6 -43 -1 -71 1
-63 4 8 3 18 9 21 14 4 6 20 6 43 0 21 -6 38 -7 42 -1 3 5 -5 9 -18 9 -13 0
-28 4 -34 9 -13 12 -102 19 -154 12z m82 -244 c3 -13 1 -32 -3 -43 -6 -16 -8
-15 -8 8 -1 14 -4 33 -7 42 -3 9 -2 16 4 16 5 0 12 -10 14 -23z m148 -322 c0
-8 -7 -15 -15 -15 -26 0 -18 20 13 29 1 1 2 -6 2 -14z"/>
<path d="M1011 5852 c-6 -12 -11 -27 -11 -34 1 -7 8 0 16 15 9 16 13 31 11 34
-3 2 -10 -4 -16 -15z"/>
<path d="M982 5775 c-10 -21 -9 -25 3 -25 9 0 15 10 15 25 0 14 -2 25 -3 25
-2 0 -9 -11 -15 -25z"/>
<path d="M962 5620 c0 -14 2 -19 5 -12 2 6 2 18 0 25 -3 6 -5 1 -5 -13z"/>
<path d="M1080 5561 c-6 -12 -7 -21 -1 -21 10 0 24 30 17 37 -2 3 -9 -5 -16
-16z"/>
<path d="M8035 5474 c-104 -22 -164 -66 -216 -160 -28 -48 -33 -70 -37 -139
-4 -76 -2 -87 27 -148 79 -165 271 -238 426 -162 31 16 59 34 62 42 3 7 10 13
17 13 13 1 66 75 66 93 -1 18 -40 -32 -40 -51 0 -14 -4 -13 -21 4 -18 19 -26
20 -67 12 -128 -25 -231 0 -272 68 -27 42 -28 158 -3 194 25 36 45 56 70 69
27 14 169 19 203 7 22 -8 23 -7 11 8 -8 10 -28 16 -52 16 -36 0 -38 2 -45 36
-4 21 -2 40 4 46 6 6 8 17 5 24 -4 11 3 13 28 8 24 -4 29 -2 19 4 -8 6 -33 12
-55 15 -22 3 -47 8 -55 10 -8 2 -42 -2 -75 -9z m88 -131 c-7 -2 -19 -2 -25 0
-7 3 -2 5 12 5 14 0 19 -2 13 -5z m181 -389 c14 -37 -28 -47 -57 -14 -14 17
-14 20 -2 20 8 0 15 -7 15 -15 0 -17 9 -19 30 -5 13 8 12 10 -3 10 -10 0 -15
5 -12 10 9 15 22 12 29 -6z"/>
<path d="M8250 5428 c0 -12 3 -17 8 -12 4 5 11 12 15 15 5 3 2 9 -7 12 -12 5
-16 0 -16 -15z"/>
<path d="M8290 5400 c0 -5 5 -10 10 -10 6 0 10 5 10 10 0 6 -4 10 -10 10 -5 0
-10 -4 -10 -10z"/>
<path d="M8295 5290 c3 -5 8 -10 11 -10 2 0 4 5 4 10 0 6 -5 10 -11 10 -5 0
-7 -4 -4 -10z"/>
<path d="M8292 5250 c0 -14 2 -19 5 -12 2 6 2 18 0 25 -3 6 -5 1 -5 -13z"/>
<path d="M8118 5229 c-33 -13 -49 -44 -16 -33 21 6 21 6 5 -10 -9 -10 -21 -14
-27 -11 -6 4 -10 -6 -10 -24 0 -17 3 -30 8 -30 19 3 25 -2 12 -11 -13 -8 -13
-10 2 -10 12 0 18 10 20 38 3 36 4 37 48 40 l45 4 -35 15 c-23 10 -30 17 -20
21 7 3 15 1 17 -5 2 -5 16 -8 32 -5 17 2 34 -3 45 -13 13 -14 22 -15 39 -7 22
11 22 11 -3 11 -14 1 -36 8 -48 17 -13 9 -32 14 -43 11 -10 -3 -19 -1 -19 4 0
11 -17 10 -52 -2z"/>
<path d="M8290 5083 c0 -28 5 -55 10 -58 13 -8 13 75 0 95 -7 11 -10 0 -10
-37z"/>
<path d="M8100 5080 c0 -8 53 -30 71 -30 5 0 9 8 9 19 0 15 -8 19 -40 19 -22
0 -40 -3 -40 -8z m70 -10 c0 -5 -2 -10 -4 -10 -3 0 -8 5 -11 10 -3 6 -1 10 4
10 6 0 11 -4 11 -10z"/>
<path d="M8320 5020 c0 -5 5 -10 10 -10 6 0 10 5 10 10 0 6 -4 10 -10 10 -5 0
-10 -4 -10 -10z"/>
<path d="M520 5206 c-93 -32 -174 -117 -207 -212 -20 -60 -14 -176 13 -223 10
-18 24 -43 31 -55 22 -39 101 -101 151 -119 59 -21 209 -21 204 1 -1 6 2 12 8
12 5 0 10 -5 10 -10 0 -15 71 24 109 59 l34 31 -36 28 c-25 18 -34 32 -30 42
13 28 16 283 3 275 -7 -4 -10 -47 -8 -128 2 -136 -5 -156 -58 -182 -41 -19
-147 -19 -188 0 -52 25 -60 47 -64 190 l-3 130 27 19 c16 12 29 15 33 8 3 -5
17 -12 31 -13 25 -4 25 -4 28 -126 2 -97 6 -123 16 -123 8 0 17 -6 20 -12 4
-7 4 -2 2 12 -4 22 -3 23 7 8 9 -12 17 -14 30 -7 14 9 17 27 17 122 0 62 4
117 8 123 5 8 23 9 55 4 26 -4 47 -3 47 2 0 4 -7 8 -15 8 -8 0 -15 5 -15 10 0
13 -26 13 -66 -2 -29 -10 -34 -18 -40 -56 -4 -25 -4 -78 -1 -118 3 -45 2 -72
-4 -69 -5 4 -9 13 -9 21 0 8 -4 14 -10 14 -6 0 -10 37 -10 93 1 75 4 96 19
115 11 12 26 20 34 16 8 -3 18 -1 21 4 3 6 0 12 -8 15 -9 4 -11 16 -7 43 6 40
17 49 40 35 12 -8 12 -12 2 -25 -7 -8 -11 -21 -8 -28 4 -8 6 -7 6 5 1 19 18
22 57 7 15 -6 29 -8 32 -6 3 3 -8 10 -23 16 -16 6 -33 17 -39 25 -26 33 -177
46 -246 21z m105 -126 c-3 -5 -10 -10 -16 -10 -5 0 -9 5 -9 10 0 6 7 10 16 10
8 0 12 -4 9 -10z m132 -6 c-3 -3 -12 -4 -19 -1 -8 3 -5 6 6 6 11 1 17 -2 13
-5z m-70 -166 c-2 -24 -4 -5 -4 42 0 47 2 66 4 43 2 -24 2 -62 0 -85z m163
-211 c0 -2 -9 -12 -20 -22 -19 -18 -20 -17 -20 3 0 15 6 22 20 22 11 0 20 -2
20 -3z"/>
<path d="M652 4930 c0 -14 2 -19 5 -12 2 6 2 18 0 25 -3 6 -5 1 -5 -13z"/>
<path d="M897 4753 c-4 -3 -7 -11 -7 -17 0 -6 5 -5 12 2 6 6 9 14 7 17 -3 3
-9 2 -12 -2z"/>
<path d="M5990 4453 c-83 -57 -88 -158 -11 -210 84 -57 181 -2 181 102 0 97
-97 159 -170 108z"/>
<path d="M1610 4497 c0 -74 6 -80 75 -72 50 6 79 38 70 74 -10 41 -30 54 -89
59 l-56 4 0 -65z"/>
<path d="M8056 4606 c-120 -46 -205 -159 -214 -286 -5 -72 10 -120 65 -205 37
-55 142 -126 176 -117 4 1 7 -2 7 -8 0 -14 122 -13 157 1 86 36 112 51 146 85
20 21 34 41 31 46 -3 4 -12 1 -20 -7 -20 -19 -34 -19 -34 0 0 9 10 20 23 25
l22 9 -22 0 c-23 1 -23 2 -23 159 0 146 -1 158 -20 170 -11 7 -20 8 -20 3 0
-5 7 -11 15 -15 13 -4 15 -33 15 -175 0 -93 -3 -172 -7 -174 -5 -2 -29 -2 -55
1 l-48 4 0 69 0 69 -49 0 -49 0 0 -65 c0 -36 -3 -69 -6 -73 -10 -10 -86 -11
-92 -1 -7 13 -9 323 -1 335 8 14 84 17 93 3 6 -10 8 -27 13 -96 1 -20 91 -17
91 2 0 8 -9 15 -19 15 -13 0 -19 6 -18 19 0 11 4 19 7 19 20 -2 29 5 32 25 2
18 9 22 38 20 28 -2 31 0 17 8 -32 19 -57 19 -57 1 0 -32 -33 14 -34 48 -1 26
4 32 29 39 17 5 24 10 18 10 -7 1 -13 9 -13 18 0 13 3 14 12 5 7 -7 21 -12 32
-12 34 0 1 24 -36 26 -18 1 -34 7 -36 13 -6 19 -104 11 -166 -13z m124 -156
c0 -5 -2 -10 -4 -10 -3 0 -8 5 -11 10 -3 6 -1 10 4 10 6 0 11 -4 11 -10z m-13
-262 c-3 -7 -5 -2 -5 12 0 14 2 19 5 13 2 -7 2 -19 0 -25z m183 -109 c0 -5 -5
-9 -11 -9 -5 0 -8 -3 -6 -7 3 -5 -16 -6 -41 -4 -39 3 -43 5 -24 12 12 5 29 6
37 3 9 -4 15 0 15 10 0 10 6 13 15 10 8 -4 15 -10 15 -15z"/>
<path d="M8268 4553 c-10 -2 -18 -9 -18 -14 0 -6 7 -6 18 -1 9 5 24 12 32 15
13 5 13 5 0 5 -8 0 -23 -2 -32 -5z"/>
<path d="M8230 4400 c-13 -8 -12 -10 3 -10 9 0 17 5 17 10 0 12 -1 12 -20 0z"/>
<path d="M2184 4460 c-66 -26 -87 -144 -36 -200 72 -82 202 -27 202 85 0 47
-15 76 -54 103 -33 23 -75 27 -112 12z"/>
<path d="M3240 4442 c-30 -26 -34 -35 -38 -90 -4 -60 -3 -63 31 -97 40 -40 77
-45 133 -19 42 20 64 59 64 115 0 35 -6 48 -39 80 -50 50 -99 54 -151 11z"/>
<path d="M3904 4456 c-88 -40 -98 -152 -18 -215 52 -41 139 -18 169 45 19 40
19 65 1 107 -27 65 -90 91 -152 63z"/>
<path d="M4488 4455 c-63 -35 -79 -141 -30 -195 73 -82 202 -25 202 89 0 85
-101 146 -172 106z"/>
<path d="M5335 4436 c-55 -59 -53 -141 6 -190 48 -41 101 -36 150 13 34 34 39
45 39 85 0 40 -5 51 -40 86 -34 34 -46 40 -81 40 -34 0 -47 -6 -74 -34z"/>
<path d="M7016 4430 c-41 -46 -47 -89 -20 -147 24 -50 55 -67 110 -60 158 17
141 247 -17 247 -30 0 -43 -7 -73 -40z"/>
<path d="M529 4285 c-19 -6 -48 -18 -66 -27 -35 -20 -113 -97 -113 -114 0 -5
-5 -15 -12 -22 -38 -38 -50 -181 -21 -254 9 -24 19 -45 22 -48 3 -3 19 -24 35
-47 55 -82 166 -130 279 -121 66 6 136 36 188 84 32 29 43 54 23 54 -9 0 -18
-9 -21 -20 -3 -11 -9 -20 -13 -20 -13 0 -22 38 -14 52 6 10 5 10 -7 2 -16 -13
-79 -7 -79 8 0 5 -4 7 -9 4 -5 -3 -15 2 -22 11 -12 14 -12 16 2 11 14 -5 16 5
18 73 1 53 -2 79 -9 79 -7 0 -9 -8 -5 -19 3 -11 2 -22 -2 -24 -4 -3 -9 13 -11
36 -3 45 7 57 54 57 16 0 39 7 50 16 19 15 19 16 -1 8 -11 -4 -41 -9 -67 -12
l-47 -4 -3 -131 -3 -132 -45 2 c-25 0 -48 2 -52 2 -5 1 -8 59 -8 130 l0 130
-52 3 -53 3 3 35 c2 19 6 38 9 43 2 4 73 8 156 9 84 0 132 4 107 7 -43 6 -45
7 -45 40 0 25 5 36 20 42 17 6 15 8 -10 9 l-30 2 26 11 c22 10 24 14 13 25 -7
6 -23 12 -36 12 -19 0 -20 -2 -8 -10 13 -8 12 -10 -2 -10 -10 0 -18 7 -18 15
0 17 -62 17 -121 0z m201 -505 c0 -5 -6 -10 -14 -10 -8 0 -18 5 -21 10 -3 6 3
10 14 10 12 0 21 -4 21 -10z m-53 -26 c-3 -3 -12 -4 -19 -1 -8 3 -5 6 6 6 11
1 17 -2 13 -5z m111 -11 c-10 -2 -26 -2 -35 0 -10 3 -2 5 17 5 19 0 27 -2 18
-5z m-38 -27 c0 -3 -4 -8 -10 -11 -5 -3 -10 -1 -10 4 0 6 5 11 10 11 6 0 10
-2 10 -4z"/>
<path d="M740 4260 c0 -5 9 -10 21 -10 11 0 17 5 14 10 -3 6 -13 10 -21 10 -8
0 -14 -4 -14 -10z"/>
<path d="M781 4094 c0 -11 3 -14 6 -6 3 7 2 16 -1 19 -3 4 -6 -2 -5 -13z"/>
<path d="M715 4010 c3 -5 8 -10 11 -10 2 0 4 5 4 10 0 6 -5 10 -11 10 -5 0 -7
-4 -4 -10z"/>
<path d="M838 3823 c7 -3 16 -2 19 1 4 3 -2 6 -13 5 -11 0 -14 -3 -6 -6z"/>
<path d="M7945 3766 c-65 -21 -112 -54 -154 -107 -56 -70 -75 -133 -69 -228 6
-85 26 -130 86 -198 70 -77 194 -117 297 -94 31 7 59 19 62 27 3 8 10 11 15 8
5 -4 21 -1 34 6 18 10 21 16 13 27 -6 7 -8 13 -4 13 4 0 2 7 -5 15 -6 8 -9 19
-5 25 3 5 1 10 -4 10 -6 0 -11 8 -11 18 -1 16 -1 16 -14 -1 -12 -15 -27 -17
-112 -15 -95 3 -98 4 -104 28 -9 35 -2 50 26 50 24 0 24 2 24 89 0 85 -1 90
-22 93 -16 2 -24 12 -29 35 -3 17 -3 36 0 42 4 6 51 12 106 13 91 3 100 5 102
23 2 11 0 14 -3 8 -4 -9 -31 -13 -87 -12 -80 2 -81 2 -32 10 28 5 63 9 79 9
36 -1 30 9 -7 12 -27 2 -38 30 -17 43 16 10 11 35 -7 35 -9 0 -14 2 -11 5 3 3
24 2 47 -4 47 -10 54 -5 14 10 -45 17 -163 20 -208 5z m145 -47 c0 -11 -4 -18
-10 -14 -5 3 -7 12 -3 20 7 21 13 19 13 -6z"/>
<path d="M8190 3720 c0 -6 7 -10 15 -10 8 0 15 2 15 4 0 2 -7 6 -15 10 -8 3
-15 1 -15 -4z"/>
<path d="M8215 3660 c3 -5 8 -10 11 -10 2 0 4 5 4 10 0 6 -5 10 -11 10 -5 0
-7 -4 -4 -10z"/>
<path d="M8196 3595 c-3 -9 -6 -24 -5 -33 0 -9 5 -4 10 12 9 32 6 48 -5 21z"/>
<path d="M8135 3532 c-10 -10 -5 -182 5 -182 7 0 10 32 9 82 -1 53 2 83 10 86
6 2 11 7 11 11 0 9 -27 10 -35 3z"/>
<path d="M8162 3370 c0 -14 2 -19 5 -12 2 6 2 18 0 25 -3 6 -5 1 -5 -13z"/>
<path d="M8187 3330 c3 -11 7 -20 9 -20 2 0 4 9 4 20 0 11 -4 20 -9 20 -5 0
-7 -9 -4 -20z"/>
<path d="M8270 3339 c0 -5 5 -7 10 -4 6 3 10 8 10 11 0 2 -4 4 -10 4 -5 0 -10
-5 -10 -11z"/>
<path d="M8210 3311 c0 -11 5 -23 10 -26 6 -4 10 5 10 19 0 14 -4 26 -10 26
-5 0 -10 -9 -10 -19z"/>
<path d="M8289 3283 c-1 -5 -1 -11 0 -15 0 -5 -9 -8 -21 -8 -22 -1 -22 -1 -4
-11 19 -12 36 1 36 29 0 13 -9 17 -11 5z"/>
<path d="M791 3399 c-56 -11 -128 -46 -161 -78 -64 -65 -110 -164 -110 -238 0
-114 72 -235 172 -289 49 -27 61 -29 159 -29 100 0 108 2 149 29 39 26 42 30
25 37 -19 7 -19 8 3 8 12 1 22 -4 22 -10 0 -12 42 36 59 69 10 18 9 22 -2 22
-8 0 -17 -10 -20 -21 -4 -15 -11 -20 -21 -16 -10 4 -16 1 -16 -8 0 -10 -12
-13 -45 -12 -25 1 -40 4 -35 5 6 2 10 10 10 18 0 8 6 17 14 20 19 7 27 30 19
51 -5 14 -7 13 -14 -5 -4 -12 -27 -31 -50 -42 -34 -18 -54 -21 -118 -17 -118
7 -129 12 -129 64 0 56 13 67 52 44 38 -23 89 -35 116 -26 34 11 22 22 -47 44
-87 28 -113 52 -113 106 0 28 7 52 22 71 12 16 22 30 23 32 1 1 28 7 61 13 32
6 63 15 69 20 5 5 14 9 20 9 5 0 3 -4 -5 -10 -21 -13 -5 -24 18 -11 22 12 19
59 -5 68 -12 5 -12 7 -1 14 10 7 10 9 -2 9 -13 0 -13 1 0 10 13 8 12 10 -2 10
-10 0 -18 5 -18 10 0 15 23 12 46 -5 10 -8 35 -14 54 -15 24 0 31 3 21 9 -8 5
-20 7 -28 4 -7 -3 -13 -1 -13 5 0 24 -113 43 -179 31z m74 -39 c-3 -5 -10 -10
-16 -10 -5 0 -9 5 -9 10 0 6 7 10 16 10 8 0 12 -4 9 -10z m-8 -366 c-3 -3 -12
-4 -19 -1 -8 3 -5 6 6 6 11 1 17 -2 13 -5z m113 -104 c0 -5 -4 -10 -10 -10 -5
0 -10 5 -10 10 0 6 5 10 10 10 6 0 10 -4 10 -10z m100 -35 c-7 -9 -15 -13 -17
-11 -7 7 7 26 19 26 6 0 6 -6 -2 -15z"/>
<path d="M956 3250 c-15 -5 -16 -9 -7 -14 7 -5 18 -3 24 3 14 14 6 20 -17 11z"/>
<path d="M1003 3180 c0 -25 2 -35 4 -22 2 12 2 32 0 45 -2 12 -4 2 -4 -23z"/>
<path d="M830 3144 c0 -10 6 -14 14 -11 8 3 17 -1 20 -9 3 -9 10 -12 16 -9 6
4 8 11 5 16 -4 5 -2 9 4 9 5 0 13 -4 16 -10 3 -5 18 -10 33 -11 23 0 24 -2 8
-8 -18 -7 -19 -8 -2 -14 10 -4 25 -2 33 5 12 9 5 15 -39 34 -64 28 -108 31
-108 8z"/>
<path d="M1005 3036 c2 -26 6 -51 9 -54 10 -10 6 72 -4 88 -7 10 -8 0 -5 -34z"/>
<path d="M1050 2920 c0 -5 -9 -10 -20 -10 -13 0 -20 -7 -20 -20 0 -26 12 -25
38 3 24 25 28 37 12 37 -5 0 -10 -4 -10 -10z"/>
<path d="M7636 2973 c-58 -15 -144 -78 -159 -115 -3 -10 -10 -18 -16 -18 -5 0
-19 -26 -32 -57 -33 -80 -32 -177 1 -253 75 -169 256 -238 437 -165 32 13 40
20 36 36 -3 10 -10 16 -17 13 -6 -3 0 4 14 16 14 12 19 19 13 15 -9 -4 -11 -1
-7 9 4 10 19 16 38 17 21 1 25 3 11 6 -11 3 -23 10 -27 17 -5 8 -16 8 -39 -1
-40 -15 -49 -10 -49 28 0 16 -5 29 -11 29 -8 0 -10 -14 -6 -40 3 -22 1 -40 -4
-40 -14 0 -22 46 -11 67 6 10 7 34 3 53 l-7 35 -6 -50 c-5 -39 -13 -55 -38
-78 -29 -26 -36 -28 -108 -25 l-76 3 -7 32 c-4 20 -2 39 6 49 10 15 17 15 45
5 29 -10 36 -9 52 9 14 15 18 35 18 93 l0 74 -31 -5 c-35 -5 -49 8 -49 50 0
34 19 40 115 36 l70 -3 5 -95 5 -95 5 95 c5 89 4 96 -18 115 -17 15 -22 29
-20 56 2 22 7 35 14 32 7 -2 19 6 28 19 15 21 15 23 -1 30 -20 7 -148 8 -177
1z m107 -20 c-7 -2 -19 -2 -25 0 -7 3 -2 5 12 5 14 0 19 -2 13 -5z m5 -120
c-15 -2 -42 -2 -60 0 -18 2 -6 4 27 4 33 0 48 -2 33 -4z m-78 -218 c0 -8 -4
-15 -10 -15 -5 0 -7 7 -4 15 4 8 8 15 10 15 2 0 4 -7 4 -15z"/>
<path d="M7788 2863 c6 -2 18 -2 25 0 6 3 1 5 -13 5 -14 0 -19 -2 -12 -5z"/>
<path d="M7933 2445 c-8 -23 4 -30 21 -12 8 8 12 17 9 21 -11 11 -23 7 -30 -9z"/>
<path d="M1217 2580 c-95 -17 -184 -88 -232 -186 -37 -75 -36 -189 2 -264 93
-187 300 -247 468 -136 58 39 69 52 34 41 -21 -7 -39 7 -39 30 0 6 5 3 10 -5
8 -13 12 -13 27 3 17 18 16 19 -37 17 -86 -4 -88 -3 -127 55 -20 31 -41 54
-47 52 -7 -3 -10 -24 -8 -55 l3 -50 -51 -3 c-29 -2 -53 -2 -55 2 -7 11 -7 327
-1 338 9 14 198 8 239 -8 15 -6 27 -7 27 -2 0 5 -24 15 -52 23 l-53 15 35 11
c24 7 28 10 14 11 -22 1 -34 19 -34 51 0 21 27 35 32 15 2 -10 9 -8 28 7 14
12 18 19 8 15 -9 -3 -18 -1 -20 5 -2 6 -13 12 -24 14 -10 1 -37 4 -59 7 -22 3
-61 2 -88 -3z m106 -117 c-7 -2 -19 -2 -25 0 -7 3 -2 5 12 5 14 0 19 -2 13 -5z
m-23 -341 c0 -7 -4 -10 -10 -7 -5 3 -10 16 -10 28 0 18 2 19 10 7 5 -8 10 -21
10 -28z"/>
<path d="M1455 2510 c-3 -6 1 -7 9 -4 18 7 21 14 7 14 -6 0 -13 -4 -16 -10z"/>
<path d="M1441 2374 c0 -11 3 -14 6 -6 3 7 2 16 -1 19 -3 4 -6 -2 -5 -13z"/>
<path d="M1269 2325 c-1 -8 -2 -21 -3 -27 -1 -7 7 -12 17 -12 9 1 24 2 32 3
20 1 19 37 -1 45 -26 10 -44 7 -45 -9z m41 -15 c0 -5 -4 -10 -10 -10 -5 0 -10
5 -10 10 0 6 5 10 10 10 6 0 10 -4 10 -10z"/>
<path d="M1450 2325 c0 -8 4 -15 10 -15 5 0 7 7 4 15 -4 8 -8 15 -10 15 -2 0
-4 -7 -4 -15z"/>
<path d="M1441 2264 c0 -11 3 -14 6 -6 3 7 2 16 -1 19 -3 4 -6 -2 -5 -13z"/>
<path d="M1409 2236 c-15 -10 -14 -14 7 -41 26 -33 33 -23 9 12 -11 16 -12 22
-2 26 6 2 10 7 7 10 -3 3 -12 0 -21 -7z"/>
<path d="M1581 2174 c0 -11 3 -14 6 -6 3 7 2 16 -1 19 -3 4 -6 -2 -5 -13z"/>
<path d="M1466 2138 c17 -30 37 -46 50 -41 8 3 14 10 14 15 0 6 -7 8 -15 4 -9
-3 -19 3 -25 14 -6 11 -15 20 -21 20 -6 0 -7 -6 -3 -12z"/>
<path d="M1516 2065 c-3 -8 -1 -15 4 -15 13 0 22 18 11 24 -5 3 -11 -1 -15 -9z"/>
<path d="M7150 2264 c-89 -29 -119 -54 -183 -147 -38 -56 -41 -65 -45 -144 -5
-99 10 -148 67 -221 53 -67 106 -100 187 -117 99 -21 183 -1 260 62 50 41 83
88 69 101 -3 3 -10 -9 -16 -26 -11 -33 -24 -39 -49 -21 -11 8 -9 9 10 3 22 -6
23 -5 11 10 -10 12 -17 14 -25 6 -5 -5 -20 -10 -32 -10 -12 0 -25 -6 -27 -12
-4 -10 -6 -10 -6 0 -1 6 -10 12 -21 12 -19 0 -80 51 -80 67 0 4 -9 19 -20 33
-19 24 -20 24 -20 3 0 -12 6 -24 13 -26 10 -4 10 -6 0 -6 -7 -1 -13 -10 -13
-20 0 -41 -11 -51 -55 -51 -24 0 -47 5 -51 11 -5 9 -9 282 -4 341 0 3 22 8 50
10 57 4 60 0 60 -74 l0 -51 20 26 c11 14 20 30 20 37 0 6 5 8 10 5 6 -3 10 -1
10 4 0 6 9 20 20 31 19 19 18 50 -1 50 -5 0 -9 4 -9 10 0 5 6 7 13 4 10 -4 14
5 13 33 -1 32 2 38 22 41 17 3 22 -2 23 -20 1 -17 3 -18 6 -5 2 9 10 17 16 18
7 0 -8 9 -33 19 -43 18 -171 26 -210 14z m160 -18 c0 -2 -7 -7 -16 -10 -8 -3
-12 -2 -9 4 6 10 25 14 25 6z m0 -110 c0 -2 -7 -17 -15 -32 l-15 -29 0 26 c0
14 3 29 7 32 7 8 23 9 23 3z m-60 -76 l-11 -25 6 25 c2 14 5 36 6 50 l2 25 4
-25 c2 -14 -1 -37 -7 -50z m70 -306 c0 -2 -11 -4 -25 -4 -14 0 -25 4 -25 9 0
4 11 6 25 3 14 -2 25 -6 25 -8z m113 -35 c-17 -17 -37 -1 -22 17 8 10 15 12
23 4 7 -7 7 -13 -1 -21z"/>
<path d="M7410 2205 c0 -8 7 -15 16 -15 14 0 14 3 4 15 -7 8 -14 15 -16 15 -2
0 -4 -7 -4 -15z"/>
<path d="M7440 2150 c0 -5 5 -10 11 -10 5 0 7 5 4 10 -3 6 -8 10 -11 10 -2 0
-4 -4 -4 -10z"/>
<path d="M7385 2129 c-10 -15 1 -23 20 -15 9 3 13 10 10 16 -8 13 -22 13 -30
-1z"/>
<path d="M7350 2120 c0 -5 5 -10 10 -10 6 0 10 5 10 10 0 6 -4 10 -10 10 -5 0
-10 -4 -10 -10z"/>
<path d="M7433 2084 c-6 -13 -7 -24 -3 -24 9 0 25 39 18 45 -2 2 -8 -7 -15
-21z"/>
<path d="M7395 2040 c-3 -5 -1 -10 4 -10 6 0 11 5 11 10 0 6 -2 10 -4 10 -3 0
-8 -4 -11 -10z"/>
<path d="M7366 2003 c-6 -14 -5 -15 5 -6 7 7 10 15 7 18 -3 3 -9 -2 -12 -12z"/>
<path d="M7320 1950 c0 -5 5 -10 10 -10 6 0 10 -5 10 -10 0 -12 15 -32 43 -58
9 -9 17 -20 17 -24 0 -4 11 -19 25 -34 20 -21 28 -25 37 -16 9 9 9 12 -1 12
-17 0 -37 21 -45 48 -4 12 -20 31 -37 42 -16 12 -29 30 -29 41 0 10 -7 19 -15
19 -8 0 -15 -4 -15 -10z"/>
<path d="M7541 1844 c0 -11 3 -14 6 -6 3 7 2 16 -1 19 -3 4 -6 -2 -5 -13z"/>
<path d="M1805 1945 c-5 -2 -34 -10 -63 -19 -56 -18 -75 -30 -129 -86 -89 -92
-114 -239 -59 -352 36 -74 87 -123 165 -160 59 -28 70 -30 146 -26 45 3 94 12
109 20 l27 14 -59 12 c-53 11 -59 15 -70 46 -10 27 -20 35 -45 40 -50 9 -103
59 -112 103 -10 51 -7 141 6 164 17 33 62 71 93 80 43 12 130 11 143 -2 6 -6
19 -9 29 -7 15 3 10 8 -18 21 -21 9 -38 20 -38 26 0 5 -10 11 -22 13 -54 7
-21 82 36 82 37 0 40 10 6 19 -11 3 -20 1 -20 -4 0 -5 -10 -9 -22 -9 -19 0
-20 2 -8 10 8 5 11 10 5 10 -5 1 -28 3 -50 5 -22 2 -44 2 -50 0z"/>
<path d="M2030 1870 c0 -5 5 -10 11 -10 5 0 7 5 4 10 -3 6 -8 10 -11 10 -2 0
-4 -4 -4 -10z"/>
<path d="M2007 1749 c7 -7 15 -10 18 -7 3 3 -2 9 -12 12 -14 6 -15 5 -6 -5z"/>
<path d="M1853 1685 c-25 -18 -37 -64 -29 -109 8 -41 52 -70 81 -54 47 26 46
56 -2 60 -38 3 -38 3 -38 48 0 44 1 45 33 45 34 0 42 9 16 19 -24 9 -38 7 -61
-9z m30 -128 c31 -4 31 -5 -3 -3 -33 1 -35 3 -36 36 -1 34 -1 34 3 3 4 -27 9
-32 36 -36z"/>
<path d="M2062 1617 c-1 -38 -4 -79 -7 -90 -5 -19 -4 -18 9 3 16 27 20 102 6
135 -5 13 -8 -3 -8 -48z"/>
<path d="M1936 1641 c-4 -5 -2 -20 3 -33 9 -21 10 -21 10 10 1 32 -3 39 -13
23z"/>
<path d="M2032 1488 c-16 -16 -15 -28 2 -28 16 0 29 27 17 34 -4 3 -13 0 -19
-6z"/>
<path d="M2000 1463 c0 -7 -7 -13 -15 -13 -8 0 -15 -5 -15 -10 0 -17 27 -23
57 -12 26 9 26 10 8 18 -11 4 -23 12 -27 18 -5 7 -8 7 -8 -1z"/>
<path d="M2060 1403 c0 -25 0 -26 20 -8 11 10 20 19 20 20 0 2 -9 5 -20 8 -16
4 -20 0 -20 -20z"/>
<path d="M2018 1343 c7 -3 16 -2 19 1 4 3 -2 6 -13 5 -11 0 -14 -3 -6 -6z"/>
<path d="M6595 1691 c-3 -5 -20 -7 -38 -5 -49 8 -197 -75 -197 -111 0 -7 -9
-20 -19 -29 -34 -31 -64 -130 -58 -190 5 -54 41 -150 64 -174 7 -7 18 -21 25
-31 20 -27 98 -76 148 -91 24 -8 69 -14 100 -13 61 1 136 25 133 42 -2 5 4 8
12 5 8 -4 15 -1 15 5 0 6 6 11 13 11 20 0 43 31 45 58 1 23 -12 30 -24 11 -3
-6 -1 -15 6 -19 9 -5 9 -9 1 -14 -6 -4 -11 -3 -11 2 0 10 -38 25 -54 23 -5 -1
-6 5 -2 14 3 9 6 21 6 26 0 5 7 9 16 9 9 0 14 6 11 13 -2 6 -10 11 -16 9 -6
-1 -11 5 -11 13 0 8 -3 15 -7 15 -5 0 -8 -17 -8 -37 l0 -38 -127 -3 -128 -3 0
171 c0 155 2 170 18 172 51 4 74 3 79 -5 3 -5 4 -65 4 -133 l-2 -124 55 0 c48
0 55 2 53 19 0 11 -4 18 -8 16 -9 -6 -36 26 -41 50 -4 16 -7 12 -15 -15 -10
-33 -10 -31 -18 43 -4 43 -5 98 -3 122 5 38 3 44 -16 50 -21 6 -21 6 2 15 30
12 53 -8 45 -39 -3 -11 -8 -21 -12 -21 -3 0 -7 -18 -8 -40 -2 -22 2 -40 7 -40
6 0 10 18 10 39 0 33 4 40 23 43 18 2 21 8 18 33 -1 17 -8 33 -15 37 -7 5 -4
8 7 8 10 0 16 4 13 9 -3 5 -1 23 5 41 9 25 16 31 32 26 15 -4 17 -2 8 7 -7 7
-32 11 -56 10 -25 -1 -47 3 -50 8 -8 12 -22 12 -30 0z"/>
<path d="M2467 1439 c-27 -6 -54 -14 -60 -20 -7 -5 -31 -22 -53 -38 -86 -60
-141 -179 -131 -282 9 -100 86 -221 163 -258 16 -7 37 -18 48 -23 10 -5 51
-12 91 -15 61 -5 85 -2 139 17 66 24 77 33 54 44 -7 3 -3 3 9 1 27 -7 38 9 18
25 -11 9 -12 17 -5 30 7 13 7 21 0 25 -5 3 -10 -3 -10 -14 0 -11 -5 -23 -12
-27 -7 -5 -8 -3 -3 6 6 10 4 12 -8 7 -10 -3 -17 -2 -17 3 0 5 -9 7 -20 5 -12
-2 -20 2 -20 10 0 7 -7 15 -15 19 -8 3 -12 12 -9 21 3 8 2 15 -4 15 -6 0 -6 9
1 25 7 14 20 25 29 25 23 0 56 44 68 91 12 42 4 105 -13 116 -7 4 -7 -2 -2
-18 14 -39 9 -107 -10 -135 -20 -32 -71 -54 -123 -54 l-39 0 1 -52 c0 -53 0
-53 -33 -56 -19 -2 -45 -1 -58 3 l-23 5 2 173 3 172 113 0 c115 0 143 8 72 20
-22 4 -40 11 -40 15 0 5 -8 11 -17 13 -16 4 -16 5 -1 6 9 0 20 -3 23 -9 3 -5
22 -10 41 -10 19 0 34 5 34 10 0 6 -14 10 -31 10 -25 0 -29 3 -20 13 6 8 8 17
4 20 -3 4 -1 7 6 7 9 0 11 8 7 26 -5 17 -3 23 4 19 5 -3 10 -2 10 3 0 21 -81
26 -163 11z"/>
<path d="M2650 1410 c0 -5 10 -10 23 -10 18 0 19 2 7 10 -19 13 -30 13 -30 0z"/>
<path d="M2650 1370 c0 -12 8 -12 35 0 18 8 17 9 -7 9 -16 1 -28 -3 -28 -9z"/>
<path d="M2750 1360 c0 -5 5 -10 11 -10 5 0 7 5 4 10 -3 6 -8 10 -11 10 -2 0
-4 -4 -4 -10z"/>
<path d="M2536 1192 c-2 -4 -4 -20 -4 -35 0 -27 3 -29 31 -23 40 8 42 11 30
39 -10 21 -48 34 -57 19z m39 -32 c-3 -5 -12 -10 -18 -10 -7 0 -6 4 3 10 19
12 23 12 15 0z"/>
<path d="M2831 994 c0 -11 3 -14 6 -6 3 7 2 16 -1 19 -3 4 -6 -2 -5 -13z"/>
<path d="M2652 975 c-1 -21 3 -25 23 -25 29 0 32 12 9 34 -22 22 -29 20 -32
-9z"/>
<path d="M2760 905 c0 -8 4 -15 9 -15 5 0 11 7 15 15 3 9 0 15 -9 15 -8 0 -15
-7 -15 -15z"/>
<path d="M5810 1270 c-95 -13 -184 -80 -233 -174 -29 -56 -32 -69 -32 -151 1
-80 4 -96 30 -143 39 -71 78 -108 147 -143 51 -26 70 -30 145 -30 48 0 90 4
96 10 6 6 18 11 27 11 8 0 23 7 33 15 18 13 17 14 -10 29 -29 16 -13 21 22 7
29 -12 74 14 75 43 0 5 -12 -1 -27 -15 -18 -17 -24 -19 -20 -7 5 14 1 15 -26
7 -41 -12 -50 -11 -42 1 3 6 15 10 25 10 30 0 36 28 30 125 l-7 90 -1 -92 c-2
-81 -4 -94 -22 -103 -15 -8 -20 -8 -20 1 0 7 -9 9 -23 6 -41 -11 -50 5 -49 85
l2 73 -17 -40 c-19 -47 -29 -55 -65 -55 -30 0 -36 6 -59 64 l-16 39 -1 -78
c-1 -43 -4 -81 -7 -83 -3 -3 -24 -6 -48 -6 l-42 -1 -3 150 c-4 197 -4 195 57
195 59 0 81 -7 81 -27 0 -8 10 -37 21 -64 l22 -50 27 59 c23 47 27 67 23 106
-5 39 -2 50 11 58 9 5 16 16 16 23 0 10 10 15 30 15 44 0 37 16 -12 28 -68 17
-90 19 -138 12z m90 -167 c-1 -11 -26 -43 -33 -43 -4 0 -1 11 5 25 10 23 28
35 28 18z m-51 -55 c6 -18 7 -28 2 -23 -10 12 -25 55 -18 55 3 0 10 -15 16
-32z m144 -375 c-7 -2 -19 -2 -25 0 -7 3 -2 5 12 5 14 0 19 -2 13 -5z"/>
<path d="M5940 1200 c-12 -7 -12 -12 -2 -22 6 -6 12 -10 13 -7 0 2 2 12 4 22
4 20 4 19 -15 7z"/>
<path d="M6048 1203 c7 -3 16 -2 19 1 4 3 -2 6 -13 5 -11 0 -14 -3 -6 -6z"/>
<path d="M5930 1126 c0 -12 10 -16 40 -16 22 0 40 5 40 10 0 6 -8 10 -17 10
-10 0 -28 3 -40 6 -17 5 -23 2 -23 -10z"/>
<path d="M6182 930 c0 -14 2 -19 5 -12 2 6 2 18 0 25 -3 6 -5 1 -5 -13z"/>
<path d="M6093 783 c-7 -2 -13 -12 -13 -20 0 -12 3 -13 15 -3 8 6 19 9 24 5 7
-3 8 0 5 9 -6 17 -11 18 -31 9z"/>
<path d="M3285 1114 c-77 -12 -156 -62 -216 -140 -65 -84 -66 -273 -2 -355 37
-49 104 -107 136 -119 17 -6 40 -16 49 -21 24 -12 168 -12 168 1 0 6 9 10 19
10 21 0 124 60 117 68 -3 2 -15 -3 -28 -12 -30 -21 -56 -22 -34 -1 8 8 19 15
25 15 6 0 11 7 11 16 0 12 -7 15 -24 12 -17 -4 -23 -1 -19 9 3 7 9 13 14 13 5
0 9 7 9 15 0 19 -19 19 -26 0 -4 -8 -16 -15 -28 -15 -11 0 -28 -5 -36 -10 -12
-8 -12 -10 5 -10 33 -1 52 -17 37 -32 -9 -9 -12 -9 -12 5 0 11 -8 17 -25 17
-14 0 -25 5 -25 10 0 14 -27 12 -33 -2 -4 -10 -6 -10 -6 0 -1 6 -9 12 -18 12
-9 0 -35 9 -58 20 -74 36 -112 148 -78 233 21 51 31 62 89 93 48 26 87 30 128
14 20 -7 26 -6 26 3 0 8 -25 18 -60 26 -33 7 -57 17 -55 22 3 4 15 6 28 3 80
-15 87 -16 87 -5 0 6 -12 11 -27 11 -17 0 -23 3 -16 8 8 5 9 13 3 22 -5 8 -4
22 2 33 5 10 8 20 6 22 -6 7 -103 13 -133 9z m170 -594 c3 -6 -1 -7 -9 -4 -18
7 -21 14 -7 14 6 0 13 -4 16 -10z"/>
<path d="M3470 1080 c0 -13 18 -22 24 -11 3 5 -1 11 -9 15 -8 3 -15 1 -15 -4z"/>
<path d="M3450 1050 c0 -5 5 -10 11 -10 5 0 7 5 4 10 -3 6 -8 10 -11 10 -2 0
-4 -4 -4 -10z"/>
<path d="M3478 943 c7 -3 16 -2 19 1 4 3 -2 6 -13 5 -11 0 -14 -3 -6 -6z"/>
<path d="M3353 873 c-7 -2 -13 -9 -13 -15 0 -5 -7 -16 -15 -24 -24 -25 -19
-87 10 -118 27 -29 73 -33 67 -6 -2 7 -6 45 -9 82 -4 53 -2 68 9 68 10 0 9 3
-2 10 -16 10 -28 11 -47 3z m2 -60 c-5 -15 -7 -39 -6 -52 2 -16 -1 -21 -9 -16
-12 7 -7 75 6 97 11 18 16 -1 9 -29z m22 5 c-3 -7 -5 -2 -5 12 0 14 2 19 5 13
2 -7 2 -19 0 -25z m6 -117 c-9 -12 -23 18 -16 35 6 17 8 17 13 -6 4 -14 5 -27
3 -29z"/>
<path d="M3547 838 c8 -46 13 -48 13 -5 0 21 -4 37 -10 37 -5 0 -7 -14 -3 -32z"/>
<path d="M3421 823 c-1 -12 5 -24 12 -26 9 -4 9 -8 -1 -15 -8 -5 -12 -20 -10
-32 3 -23 3 -23 17 3 13 24 13 31 -2 60 -13 27 -16 28 -16 10z"/>
<path d="M3550 735 c0 -14 4 -25 9 -25 4 0 6 11 3 25 -2 14 -6 25 -8 25 -2 0
-4 -11 -4 -25z"/>
<path d="M3521 654 c0 -11 3 -14 6 -6 3 7 2 16 -1 19 -3 4 -6 -2 -5 -13z"/>
<path d="M3560 585 c0 -8 4 -15 9 -15 5 0 11 7 15 15 3 9 0 15 -9 15 -8 0 -15
-7 -15 -15z"/>
<path d="M4895 990 c-70 -36 -85 -48 -119 -101 -86 -132 -84 -247 8 -377 84
-119 250 -166 381 -106 31 14 59 32 62 40 3 8 12 14 20 14 10 0 13 10 11 38
-3 31 0 37 17 37 14 0 21 7 22 25 1 14 0 18 -3 8 -3 -11 -15 -18 -29 -18 -14
0 -25 -7 -28 -19 -4 -16 -12 -18 -58 -14 -67 6 -82 10 -74 23 9 15 -14 52 -28
44 -7 -4 -9 -4 -5 1 10 10 -16 69 -41 94 l-20 20 4 -89 c3 -77 1 -90 -13 -93
-36 -9 -73 -6 -77 6 -7 17 -11 337 -5 338 65 8 114 3 136 -16 13 -11 24 -26
24 -32 0 -7 14 -34 30 -60 l30 -47 0 43 c0 38 -2 42 -20 36 -16 -5 -20 -2 -20
19 0 14 -10 34 -22 46 l-22 20 22 0 c23 0 29 14 12 25 -8 5 -8 11 0 20 8 9 7
17 -5 28 -8 9 -15 18 -15 20 0 11 50 13 61 3 8 -8 13 -8 16 2 3 6 11 12 19 12
19 0 18 16 -2 24 -22 9 -24 8 -24 -10 0 -13 -2 -13 -15 -2 -8 7 -21 19 -29 26
-8 6 -39 12 -68 12 -42 0 -70 -8 -133 -40z m329 -498 c2 -4 1 -14 -5 -22 -7
-13 -9 -12 -9 2 0 13 -11 18 -42 21 l-43 4 47 1 c26 1 49 -2 52 -6z"/>
<path d="M5205 970 c3 -5 11 -10 16 -10 6 0 7 5 4 10 -3 6 -11 10 -16 10 -6 0
-7 -4 -4 -10z"/>
<path d="M5255 920 c3 -5 8 -10 11 -10 2 0 4 5 4 10 0 6 -5 10 -11 10 -5 0 -7
-4 -4 -10z"/>
<path d="M5130 877 c0 -8 14 -12 40 -12 44 0 53 9 18 19 -37 9 -58 7 -58 -7z"/>
<path d="M5117 843 c-2 -5 -1 -17 3 -27 6 -19 7 -19 12 2 6 21 -6 40 -15 25z"/>
<path d="M5241 804 c0 -11 3 -14 6 -6 3 7 2 16 -1 19 -3 4 -6 -2 -5 -13z"/>
<path d="M5241 754 c0 -11 3 -14 6 -6 3 7 2 16 -1 19 -3 4 -6 -2 -5 -13z"/>
<path d="M5243 595 c0 -22 2 -30 4 -17 2 12 2 30 0 40 -3 9 -5 -1 -4 -23z"/>
<path d="M5326 595 c-3 -8 -1 -15 4 -15 6 0 10 7 10 15 0 8 -2 15 -4 15 -2 0
-6 -7 -10 -15z"/>
<path d="M5275 510 c-3 -5 -1 -10 4 -10 6 0 11 5 11 10 0 6 -2 10 -4 10 -3 0
-8 -4 -11 -10z"/>
<path d="M4121 969 c-94 -16 -183 -84 -227 -176 -25 -50 -29 -70 -29 -143 0
-77 4 -91 32 -141 62 -111 146 -168 261 -177 79 -6 171 20 214 60 17 15 34 28
38 28 17 0 18 29 1 44 -23 21 -37 21 -16 -1 16 -15 16 -17 -2 -26 -10 -6 -23
-18 -30 -26 -9 -13 -14 -14 -25 -3 -10 10 -9 14 10 18 13 4 22 14 22 25 0 24
-12 24 -34 0 -14 -16 -21 -17 -31 -8 -7 7 -11 15 -8 20 2 4 -3 7 -12 7 -9 0
-19 9 -22 19 -3 11 -11 22 -19 25 -8 3 -14 13 -14 21 0 14 -32 64 -63 100 -5
6 -7 -26 -5 -75 l3 -85 -52 -3 -53 -3 0 35 c-2 196 0 298 5 307 4 6 18 8 32 4
21 -5 24 -3 18 14 -3 11 1 36 9 55 14 33 18 36 58 36 24 0 49 -5 56 -12 9 -9
13 -8 17 5 5 11 17 15 46 12 21 -2 39 0 39 4 0 17 -54 35 -98 33 -33 -1 -43 1
-32 8 19 12 -11 12 -89 -1z m76 -25 c-3 -3 -12 -4 -19 -1 -8 3 -5 6 6 6 11 1
17 -2 13 -5z m0 -406 c-3 -8 -6 -5 -6 6 -1 11 2 17 5 13 3 -3 4 -12 1 -19z
m43 -53 c10 -12 10 -15 -4 -15 -9 0 -16 7 -16 15 0 8 2 15 4 15 2 0 9 -7 16
-15z m67 -101 c-3 -3 -12 -4 -19 -1 -8 3 -5 6 6 6 11 1 17 -2 13 -5z"/>
<path d="M4326 895 c-3 -8 -1 -15 4 -15 13 0 22 18 11 24 -5 3 -11 -1 -15 -9z"/>
<path d="M4313 851 c-15 -24 -59 -31 -95 -14 -21 10 -27 10 -31 -1 -3 -8 -16
-16 -29 -19 -21 -4 -21 -4 4 -6 19 -1 33 -11 48 -36 22 -36 40 -38 40 -4 0 12
-7 19 -19 19 -18 0 -38 17 -30 25 2 2 16 1 32 -2 25 -5 27 -9 27 -57 0 -36 -3
-47 -10 -36 -5 8 -10 11 -10 7 0 -5 9 -20 20 -34 l20 -26 0 69 c0 61 3 71 26
91 14 12 24 27 22 33 -1 5 -9 1 -15 -9z"/>
<path d="M4325 820 c-3 -5 1 -10 9 -10 9 0 16 5 16 10 0 6 -4 10 -9 10 -6 0
-13 -4 -16 -10z"/>
<path d="M4392 730 c0 -14 2 -19 5 -12 2 6 2 18 0 25 -3 6 -5 1 -5 -13z"/>
<path d="M4388 585 c-2 -25 0 -45 4 -45 5 0 8 20 8 45 0 25 -2 45 -4 45 -2 0
-6 -20 -8 -45z"/>
<path d="M4380 510 c0 -5 7 -10 15 -10 8 0 15 5 15 10 0 6 -7 10 -15 10 -8 0
-15 -4 -15 -10z"/>
</g>
</svg>
